<svg width="106" height="114" viewBox="0 0 106 114" fill="none" xmlns="http://www.w3.org/2000/svg">
<path d="M52.9132 86.3507C46.5892 78.4147 42.8692 71.4583 41.6292 65.5063C40.3892 60.6703 40.8852 56.8263 42.9932 53.9743C45.2252 50.6263 48.5732 49.0143 52.9132 49.0143C57.2532 49.0143 60.6012 50.6263 62.8332 53.9743C64.9412 56.8263 65.4372 60.6703 64.1972 65.5063C62.8332 71.5823 59.1132 78.5263 52.9132 86.3507ZM97.826 91.6827C96.958 97.5107 92.99 102.347 87.534 104.703C76.994 109.291 66.5656 101.975 57.6376 92.0547C72.406 73.5663 75.134 59.1823 68.7976 49.8699C65.0776 44.5379 59.7456 41.9339 52.9132 41.9339C39.1492 41.9339 31.5728 53.5899 34.5488 67.1183C36.2848 74.4343 40.8728 82.7547 48.1888 92.0547C43.6008 97.1387 39.2608 100.735 35.4168 102.967C32.4408 104.579 29.5888 105.571 26.8608 105.819C14.3368 107.679 4.5284 95.5267 8.9924 82.9903C9.6124 81.3783 10.8524 78.4023 12.9604 73.8143L13.0844 73.5663C19.9044 58.6739 28.2248 41.8099 37.7728 23.0735L38.0208 22.4535L40.7488 17.2455C42.8568 13.4015 43.7248 11.6655 47.0728 9.55751C48.6848 8.56551 50.6688 8.06951 52.9008 8.06951C57.3648 8.06951 60.8368 10.6735 62.3248 12.7815C63.0688 13.8975 63.9368 15.3855 65.0528 17.2455L67.6568 22.3295L68.0288 23.0735C77.5768 41.8099 85.8972 58.6739 92.7172 73.5663L92.8412 73.6903L95.3212 79.3943L96.8092 82.9903C97.95 85.8547 98.198 88.7067 97.826 91.6827ZM103.53 80.5103C102.662 77.7823 101.174 74.5583 99.314 70.7143V70.5903C90.51 51.8539 82.3136 34.9899 74.5016 19.8495L74.0056 19.1055C68.4256 7.69751 64.4576 0.865112 52.9132 0.865112C41.5052 0.865112 36.6568 8.80111 31.6968 19.1055L31.3248 19.8495C23.5128 34.9899 15.3164 51.8539 6.5124 70.5903V70.8383L3.9084 76.5423C2.9164 78.8983 2.4204 80.1383 2.2964 80.5103C-4.0276 97.8827 8.9924 113.135 24.7528 113.135C24.8768 113.135 25.3728 113.135 25.9928 113.011H27.7288C35.9128 112.019 44.3572 106.811 52.9132 97.4983C61.4692 106.798 69.9136 112.019 78.0976 113.011H79.8336C80.4536 113.135 80.9496 113.135 81.0736 113.135C96.834 113.147 109.854 97.8827 103.53 80.5103Z" fill="white"/>
</svg>
